<mxfile host="65bd71144e">
    <diagram id="njYQsQ0wQ-YpB5GkNQ2q" name="Base">
        <mxGraphModel dx="1772" dy="1827" grid="1" gridSize="10" guides="1" tooltips="1" connect="1" arrows="1" fold="1" page="1" pageScale="1" pageWidth="827" pageHeight="1169" math="0" shadow="0">
            <root>
                <mxCell id="0"/>
                <mxCell id="1" parent="0"/>
                <mxCell id="N-vRVHl8QPn2I9lbzbkr-90" value="" style="group" vertex="1" connectable="0" parent="1">
                    <mxGeometry x="-290" y="-230" width="610" height="375" as="geometry"/>
                </mxCell>
                <mxCell id="N-vRVHl8QPn2I9lbzbkr-91" value="" style="group" vertex="1" connectable="0" parent="N-vRVHl8QPn2I9lbzbkr-90">
                    <mxGeometry width="610" height="375" as="geometry"/>
                </mxCell>
                <mxCell id="N-vRVHl8QPn2I9lbzbkr-92" value="" style="rounded=0;whiteSpace=wrap;html=1;" vertex="1" parent="N-vRVHl8QPn2I9lbzbkr-91">
                    <mxGeometry width="610" height="375" as="geometry"/>
                </mxCell>
                <mxCell id="N-vRVHl8QPn2I9lbzbkr-93" value="&lt;h1&gt;Nó base&lt;/h1&gt;&lt;p style=&quot;text-align: justify&quot;&gt;Todos os nós possuem por base essa opções, em alguns casos, algumas são desabilitdas ou e/ou podem sofrem alterações.&lt;/p&gt;" style="text;html=1;strokeColor=none;fillColor=none;spacing=5;spacingTop=-20;whiteSpace=wrap;overflow=hidden;rounded=0;sketch=0;align=left;" vertex="1" parent="N-vRVHl8QPn2I9lbzbkr-91">
                    <mxGeometry x="20" y="12.5" width="220" height="120" as="geometry"/>
                </mxCell>
                <mxCell id="N-vRVHl8QPn2I9lbzbkr-94" value="" style="group" vertex="1" connectable="0" parent="N-vRVHl8QPn2I9lbzbkr-90">
                    <mxGeometry x="35" y="162.5" width="505" height="160" as="geometry"/>
                </mxCell>
                <mxCell id="N-vRVHl8QPn2I9lbzbkr-95" value="" style="group" vertex="1" connectable="0" parent="N-vRVHl8QPn2I9lbzbkr-94">
                    <mxGeometry x="145" width="240" height="160" as="geometry"/>
                </mxCell>
                <mxCell id="N-vRVHl8QPn2I9lbzbkr-96" value="" style="rounded=1;whiteSpace=wrap;html=1;arcSize=11;" vertex="1" parent="N-vRVHl8QPn2I9lbzbkr-95">
                    <mxGeometry width="240" height="160" as="geometry"/>
                </mxCell>
                <mxCell id="N-vRVHl8QPn2I9lbzbkr-97" value="" style="shape=process;whiteSpace=wrap;html=1;backgroundOutline=1;rounded=1;" vertex="1" parent="N-vRVHl8QPn2I9lbzbkr-95">
                    <mxGeometry y="60" width="240" height="100" as="geometry"/>
                </mxCell>
                <mxCell id="N-vRVHl8QPn2I9lbzbkr-98" value="&lt;h1&gt;Info&lt;/h1&gt;&lt;div&gt;Alguns Nós podem exibir informações nessa area, como textos e images.&lt;/div&gt;" style="text;html=1;strokeColor=none;fillColor=none;spacing=5;spacingTop=-20;whiteSpace=wrap;overflow=hidden;rounded=0;" vertex="1" parent="N-vRVHl8QPn2I9lbzbkr-95">
                    <mxGeometry x="30" y="60" width="190" height="100" as="geometry"/>
                </mxCell>
                <mxCell id="N-vRVHl8QPn2I9lbzbkr-99" value="Entrada de opções" style="shape=parallelogram;perimeter=parallelogramPerimeter;whiteSpace=wrap;html=1;fixedSize=1;rounded=1;" vertex="1" parent="N-vRVHl8QPn2I9lbzbkr-95">
                    <mxGeometry x="20" y="10" width="210" height="30" as="geometry"/>
                </mxCell>
                <mxCell id="N-vRVHl8QPn2I9lbzbkr-100" value="" style="group" vertex="1" connectable="0" parent="N-vRVHl8QPn2I9lbzbkr-94">
                    <mxGeometry y="20" width="160" height="120" as="geometry"/>
                </mxCell>
                <mxCell id="N-vRVHl8QPn2I9lbzbkr-101" value="" style="html=1;dashed=0;whitespace=wrap;shape=mxgraph.dfd.start;rounded=1;rotation=90;" vertex="1" parent="N-vRVHl8QPn2I9lbzbkr-100">
                    <mxGeometry x="85" y="45" width="120" height="30" as="geometry"/>
                </mxCell>
                <mxCell id="N-vRVHl8QPn2I9lbzbkr-102" value="Inputs" style="whiteSpace=wrap;html=1;rounded=1;arcSize=50;align=center;verticalAlign=bottom;strokeWidth=1;autosize=1;spacing=4;treeFolding=0;treeMoving=1;newEdgeStyle={&quot;edgeStyle&quot;:&quot;entityRelationEdgeStyle&quot;,&quot;startArrow&quot;:&quot;none&quot;,&quot;endArrow&quot;:&quot;none&quot;,&quot;segment&quot;:10,&quot;curved&quot;:1};sketch=0;expand=1;labelPosition=center;verticalLabelPosition=middle;" vertex="1" parent="N-vRVHl8QPn2I9lbzbkr-100">
                    <mxGeometry y="50" width="60" height="19.5" as="geometry"/>
                </mxCell>
                <mxCell id="N-vRVHl8QPn2I9lbzbkr-103" value="" style="shape=lineEllipse;line=vertical;perimeter=ellipsePerimeter;whiteSpace=wrap;html=1;backgroundOutline=1;rounded=1;sketch=0;" vertex="1" parent="N-vRVHl8QPn2I9lbzbkr-100">
                    <mxGeometry x="134.5" y="6" width="21" height="21" as="geometry"/>
                </mxCell>
                <mxCell id="N-vRVHl8QPn2I9lbzbkr-104" value="" style="shape=lineEllipse;line=vertical;perimeter=ellipsePerimeter;whiteSpace=wrap;html=1;backgroundOutline=1;rounded=1;sketch=0;" vertex="1" parent="N-vRVHl8QPn2I9lbzbkr-100">
                    <mxGeometry x="134.5" y="27" width="21" height="21" as="geometry"/>
                </mxCell>
                <mxCell id="N-vRVHl8QPn2I9lbzbkr-105" value="" style="shape=lineEllipse;line=vertical;perimeter=ellipsePerimeter;whiteSpace=wrap;html=1;backgroundOutline=1;rounded=1;sketch=0;" vertex="1" parent="N-vRVHl8QPn2I9lbzbkr-100">
                    <mxGeometry x="134.5" y="49.5" width="21" height="21" as="geometry"/>
                </mxCell>
                <mxCell id="N-vRVHl8QPn2I9lbzbkr-106" value="" style="shape=lineEllipse;line=vertical;perimeter=ellipsePerimeter;whiteSpace=wrap;html=1;backgroundOutline=1;rounded=1;sketch=0;" vertex="1" parent="N-vRVHl8QPn2I9lbzbkr-100">
                    <mxGeometry x="134.5" y="70.5" width="21" height="21" as="geometry"/>
                </mxCell>
                <mxCell id="N-vRVHl8QPn2I9lbzbkr-107" value="" style="shape=lineEllipse;line=vertical;perimeter=ellipsePerimeter;whiteSpace=wrap;html=1;backgroundOutline=1;rounded=1;sketch=0;" vertex="1" parent="N-vRVHl8QPn2I9lbzbkr-100">
                    <mxGeometry x="134.5" y="91.5" width="21" height="21" as="geometry"/>
                </mxCell>
                <mxCell id="N-vRVHl8QPn2I9lbzbkr-108" value="" style="edgeStyle=entityRelationEdgeStyle;startArrow=none;endArrow=none;segment=10;curved=1;entryX=0;entryY=0.5;entryDx=0;entryDy=0;exitX=1;exitY=0.5;exitDx=0;exitDy=0;" edge="1" parent="N-vRVHl8QPn2I9lbzbkr-100" source="N-vRVHl8QPn2I9lbzbkr-102" target="N-vRVHl8QPn2I9lbzbkr-103">
                    <mxGeometry relative="1" as="geometry">
                        <mxPoint x="74.99999999999955" y="39.999999999999886" as="sourcePoint"/>
                        <mxPoint x="115" y="61" as="targetPoint"/>
                    </mxGeometry>
                </mxCell>
                <mxCell id="N-vRVHl8QPn2I9lbzbkr-109" value="" style="edgeStyle=entityRelationEdgeStyle;startArrow=none;endArrow=none;segment=10;curved=1;entryX=0;entryY=0.5;entryDx=0;entryDy=0;exitX=1;exitY=0.5;exitDx=0;exitDy=0;" edge="1" parent="N-vRVHl8QPn2I9lbzbkr-100" source="N-vRVHl8QPn2I9lbzbkr-102" target="N-vRVHl8QPn2I9lbzbkr-104">
                    <mxGeometry relative="1" as="geometry">
                        <mxPoint x="65" y="60" as="sourcePoint"/>
                        <mxPoint x="144.49999999997613" y="26.5" as="targetPoint"/>
                    </mxGeometry>
                </mxCell>
                <mxCell id="N-vRVHl8QPn2I9lbzbkr-110" value="" style="edgeStyle=entityRelationEdgeStyle;startArrow=none;endArrow=none;segment=10;curved=1;entryX=0;entryY=0.5;entryDx=0;entryDy=0;exitX=1;exitY=0.5;exitDx=0;exitDy=0;" edge="1" parent="N-vRVHl8QPn2I9lbzbkr-100" source="N-vRVHl8QPn2I9lbzbkr-102" target="N-vRVHl8QPn2I9lbzbkr-105">
                    <mxGeometry relative="1" as="geometry">
                        <mxPoint x="75" y="64" as="sourcePoint"/>
                        <mxPoint x="144.4999999999891" y="47.5" as="targetPoint"/>
                    </mxGeometry>
                </mxCell>
                <mxCell id="N-vRVHl8QPn2I9lbzbkr-111" value="" style="edgeStyle=entityRelationEdgeStyle;startArrow=none;endArrow=none;segment=10;curved=1;entryX=0;entryY=0.5;entryDx=0;entryDy=0;exitX=1;exitY=0.5;exitDx=0;exitDy=0;" edge="1" parent="N-vRVHl8QPn2I9lbzbkr-100" source="N-vRVHl8QPn2I9lbzbkr-102" target="N-vRVHl8QPn2I9lbzbkr-106">
                    <mxGeometry relative="1" as="geometry">
                        <mxPoint x="75" y="64" as="sourcePoint"/>
                        <mxPoint x="144.4999999999891" y="70" as="targetPoint"/>
                    </mxGeometry>
                </mxCell>
                <mxCell id="N-vRVHl8QPn2I9lbzbkr-112" value="" style="edgeStyle=entityRelationEdgeStyle;startArrow=none;endArrow=none;segment=10;curved=1;entryX=0;entryY=0.5;entryDx=0;entryDy=0;exitX=1;exitY=0.5;exitDx=0;exitDy=0;" edge="1" parent="N-vRVHl8QPn2I9lbzbkr-100" source="N-vRVHl8QPn2I9lbzbkr-102">
                    <mxGeometry relative="1" as="geometry">
                        <mxPoint x="65" y="50" as="sourcePoint"/>
                        <mxPoint x="134.4999999999891" y="102" as="targetPoint"/>
                    </mxGeometry>
                </mxCell>
                <mxCell id="N-vRVHl8QPn2I9lbzbkr-113" value="" style="group" vertex="1" connectable="0" parent="N-vRVHl8QPn2I9lbzbkr-94">
                    <mxGeometry x="370" y="20" width="135" height="120" as="geometry"/>
                </mxCell>
                <mxCell id="N-vRVHl8QPn2I9lbzbkr-114" value="" style="html=1;dashed=0;whitespace=wrap;shape=mxgraph.dfd.start;rounded=1;rotation=90;" vertex="1" parent="N-vRVHl8QPn2I9lbzbkr-113">
                    <mxGeometry x="-45" y="45" width="120" height="30" as="geometry"/>
                </mxCell>
                <mxCell id="N-vRVHl8QPn2I9lbzbkr-115" value="" style="shape=orEllipse;perimeter=ellipsePerimeter;whiteSpace=wrap;html=1;backgroundOutline=1;rounded=1;" vertex="1" parent="N-vRVHl8QPn2I9lbzbkr-113">
                    <mxGeometry x="5" y="90" width="20" height="20" as="geometry"/>
                </mxCell>
                <mxCell id="N-vRVHl8QPn2I9lbzbkr-116" value="" style="shape=orEllipse;perimeter=ellipsePerimeter;whiteSpace=wrap;html=1;backgroundOutline=1;rounded=1;direction=south;sketch=0;rotation=45;" vertex="1" parent="N-vRVHl8QPn2I9lbzbkr-113">
                    <mxGeometry x="5" y="6" width="20" height="20" as="geometry"/>
                </mxCell>
                <mxCell id="N-vRVHl8QPn2I9lbzbkr-117" value="Success" style="whiteSpace=wrap;html=1;rounded=1;arcSize=50;align=center;verticalAlign=middle;strokeWidth=1;autosize=1;spacing=4;treeFolding=0;treeMoving=1;newEdgeStyle={&quot;edgeStyle&quot;:&quot;entityRelationEdgeStyle&quot;,&quot;startArrow&quot;:&quot;none&quot;,&quot;endArrow&quot;:&quot;none&quot;,&quot;segment&quot;:10,&quot;curved&quot;:1};sketch=0;expand=1;" vertex="1" parent="N-vRVHl8QPn2I9lbzbkr-113">
                    <mxGeometry x="65" y="68" width="70" height="22" as="geometry"/>
                </mxCell>
                <mxCell id="N-vRVHl8QPn2I9lbzbkr-118" value="" style="edgeStyle=entityRelationEdgeStyle;startArrow=none;endArrow=none;segment=10;curved=1;" edge="1" parent="N-vRVHl8QPn2I9lbzbkr-113" target="N-vRVHl8QPn2I9lbzbkr-117">
                    <mxGeometry relative="1" as="geometry">
                        <mxPoint x="25" y="100" as="sourcePoint"/>
                    </mxGeometry>
                </mxCell>
                <mxCell id="N-vRVHl8QPn2I9lbzbkr-119" value="" style="edgeStyle=entityRelationEdgeStyle;startArrow=none;endArrow=none;segment=10;curved=1;entryX=0;entryY=0.5;entryDx=0;entryDy=0;exitX=0;exitY=0;exitDx=0;exitDy=0;" edge="1" parent="N-vRVHl8QPn2I9lbzbkr-113" source="N-vRVHl8QPn2I9lbzbkr-116" target="N-vRVHl8QPn2I9lbzbkr-123">
                    <mxGeometry relative="1" as="geometry">
                        <mxPoint x="45" y="20" as="sourcePoint"/>
                        <mxPoint x="85" y="-0.9999999999998863" as="targetPoint"/>
                    </mxGeometry>
                </mxCell>
                <mxCell id="N-vRVHl8QPn2I9lbzbkr-120" value="" style="html=1;dashed=0;whitespace=wrap;shape=mxgraph.dfd.loop;rounded=1;sketch=0;rotation=-90;" vertex="1" parent="N-vRVHl8QPn2I9lbzbkr-113">
                    <mxGeometry x="-12.5" y="43.5" width="55" height="30" as="geometry"/>
                </mxCell>
                <mxCell id="N-vRVHl8QPn2I9lbzbkr-121" value="Outputs" style="whiteSpace=wrap;html=1;rounded=1;arcSize=50;align=center;verticalAlign=bottom;strokeWidth=1;autosize=1;spacing=4;treeFolding=0;treeMoving=1;newEdgeStyle={&quot;edgeStyle&quot;:&quot;entityRelationEdgeStyle&quot;,&quot;startArrow&quot;:&quot;none&quot;,&quot;endArrow&quot;:&quot;none&quot;,&quot;segment&quot;:10,&quot;curved&quot;:1};sketch=0;expand=1;" vertex="1" parent="N-vRVHl8QPn2I9lbzbkr-113">
                    <mxGeometry x="65" y="48" width="70" height="21" as="geometry"/>
                </mxCell>
                <mxCell id="N-vRVHl8QPn2I9lbzbkr-122" value="" style="edgeStyle=entityRelationEdgeStyle;startArrow=none;endArrow=none;segment=10;curved=1;entryX=0;entryY=0.5;entryDx=0;entryDy=0;" edge="1" parent="N-vRVHl8QPn2I9lbzbkr-113" source="N-vRVHl8QPn2I9lbzbkr-120" target="N-vRVHl8QPn2I9lbzbkr-121">
                    <mxGeometry relative="1" as="geometry">
                        <mxPoint x="35" y="110" as="sourcePoint"/>
                        <mxPoint x="75" y="100" as="targetPoint"/>
                    </mxGeometry>
                </mxCell>
                <mxCell id="N-vRVHl8QPn2I9lbzbkr-123" value="Fail" style="whiteSpace=wrap;html=1;rounded=1;arcSize=50;align=center;verticalAlign=middle;strokeWidth=1;autosize=1;spacing=4;treeFolding=0;treeMoving=1;newEdgeStyle={&quot;edgeStyle&quot;:&quot;entityRelationEdgeStyle&quot;,&quot;startArrow&quot;:&quot;none&quot;,&quot;endArrow&quot;:&quot;none&quot;,&quot;segment&quot;:10,&quot;curved&quot;:1};sketch=0;" vertex="1" collapsed="1" parent="N-vRVHl8QPn2I9lbzbkr-113">
                    <mxGeometry x="65" y="26" width="70" height="22" as="geometry"/>
                </mxCell>
            </root>
        </mxGraphModel>
    </diagram>
    <diagram id="V7Qp3Mc0itjf5UuYu2-r" name="Página-2">
        <mxGraphModel dx="1376" dy="1827" grid="1" gridSize="10" guides="1" tooltips="1" connect="1" arrows="1" fold="1" page="1" pageScale="1" pageWidth="827" pageHeight="1169" math="0" shadow="0">
            <root>
                <mxCell id="ahMI72zOjXoAlA9K3_ai-0"/>
                <mxCell id="ahMI72zOjXoAlA9K3_ai-1" parent="ahMI72zOjXoAlA9K3_ai-0"/>
                <mxCell id="ahMI72zOjXoAlA9K3_ai-2" value="" style="group" vertex="1" connectable="0" parent="ahMI72zOjXoAlA9K3_ai-1">
                    <mxGeometry x="-300" y="-240" width="610" height="375" as="geometry"/>
                </mxCell>
                <mxCell id="ahMI72zOjXoAlA9K3_ai-3" value="" style="group" vertex="1" connectable="0" parent="ahMI72zOjXoAlA9K3_ai-2">
                    <mxGeometry width="610" height="375" as="geometry"/>
                </mxCell>
                <mxCell id="ahMI72zOjXoAlA9K3_ai-4" value="" style="rounded=0;whiteSpace=wrap;html=1;" vertex="1" parent="ahMI72zOjXoAlA9K3_ai-3">
                    <mxGeometry width="610" height="375" as="geometry"/>
                </mxCell>
                <mxCell id="ahMI72zOjXoAlA9K3_ai-5" value="&lt;h1&gt;Nó base&lt;/h1&gt;&lt;p style=&quot;text-align: justify&quot;&gt;Todos os nós possuem por base essa opções, em alguns casos, algumas são desabilitdas ou e/ou podem sofrem alterações.&lt;/p&gt;" style="text;html=1;strokeColor=none;fillColor=none;spacing=5;spacingTop=-20;whiteSpace=wrap;overflow=hidden;rounded=0;sketch=0;align=left;" vertex="1" parent="ahMI72zOjXoAlA9K3_ai-3">
                    <mxGeometry x="20" y="12.5" width="220" height="120" as="geometry"/>
                </mxCell>
                <mxCell id="ahMI72zOjXoAlA9K3_ai-6" value="" style="group" vertex="1" connectable="0" parent="ahMI72zOjXoAlA9K3_ai-2">
                    <mxGeometry x="35" y="162.5" width="505" height="160" as="geometry"/>
                </mxCell>
                <mxCell id="ahMI72zOjXoAlA9K3_ai-7" value="" style="group" vertex="1" connectable="0" parent="ahMI72zOjXoAlA9K3_ai-6">
                    <mxGeometry x="145" width="240" height="160" as="geometry"/>
                </mxCell>
                <mxCell id="ahMI72zOjXoAlA9K3_ai-8" value="" style="rounded=1;whiteSpace=wrap;html=1;arcSize=11;" vertex="1" parent="ahMI72zOjXoAlA9K3_ai-7">
                    <mxGeometry width="240" height="160" as="geometry"/>
                </mxCell>
                <mxCell id="ahMI72zOjXoAlA9K3_ai-9" value="" style="shape=process;whiteSpace=wrap;html=1;backgroundOutline=1;rounded=1;" vertex="1" parent="ahMI72zOjXoAlA9K3_ai-7">
                    <mxGeometry y="60" width="240" height="100" as="geometry"/>
                </mxCell>
                <mxCell id="ahMI72zOjXoAlA9K3_ai-10" value="&lt;h1&gt;Info&lt;/h1&gt;&lt;div&gt;Alguns Nós podem exibir informações nessa area, como textos e images.&lt;/div&gt;" style="text;html=1;strokeColor=none;fillColor=none;spacing=5;spacingTop=-20;whiteSpace=wrap;overflow=hidden;rounded=0;" vertex="1" parent="ahMI72zOjXoAlA9K3_ai-7">
                    <mxGeometry x="30" y="60" width="190" height="100" as="geometry"/>
                </mxCell>
                <mxCell id="ahMI72zOjXoAlA9K3_ai-11" value="Entrada de opções" style="shape=parallelogram;perimeter=parallelogramPerimeter;whiteSpace=wrap;html=1;fixedSize=1;rounded=1;" vertex="1" parent="ahMI72zOjXoAlA9K3_ai-7">
                    <mxGeometry x="20" y="10" width="210" height="30" as="geometry"/>
                </mxCell>
                <mxCell id="ahMI72zOjXoAlA9K3_ai-12" value="" style="group" vertex="1" connectable="0" parent="ahMI72zOjXoAlA9K3_ai-6">
                    <mxGeometry y="20" width="160" height="120" as="geometry"/>
                </mxCell>
                <mxCell id="ahMI72zOjXoAlA9K3_ai-13" value="" style="html=1;dashed=0;whitespace=wrap;shape=mxgraph.dfd.start;rounded=1;rotation=90;" vertex="1" parent="ahMI72zOjXoAlA9K3_ai-12">
                    <mxGeometry x="85" y="45" width="120" height="30" as="geometry"/>
                </mxCell>
                <mxCell id="ahMI72zOjXoAlA9K3_ai-14" value="Inputs" style="whiteSpace=wrap;html=1;rounded=1;arcSize=50;align=center;verticalAlign=bottom;strokeWidth=1;autosize=1;spacing=4;treeFolding=0;treeMoving=1;newEdgeStyle={&quot;edgeStyle&quot;:&quot;entityRelationEdgeStyle&quot;,&quot;startArrow&quot;:&quot;none&quot;,&quot;endArrow&quot;:&quot;none&quot;,&quot;segment&quot;:10,&quot;curved&quot;:1};sketch=0;expand=1;labelPosition=center;verticalLabelPosition=middle;" vertex="1" parent="ahMI72zOjXoAlA9K3_ai-12">
                    <mxGeometry y="50" width="60" height="19.5" as="geometry"/>
                </mxCell>
                <mxCell id="ahMI72zOjXoAlA9K3_ai-15" value="" style="shape=lineEllipse;line=vertical;perimeter=ellipsePerimeter;whiteSpace=wrap;html=1;backgroundOutline=1;rounded=1;sketch=0;" vertex="1" parent="ahMI72zOjXoAlA9K3_ai-12">
                    <mxGeometry x="134.5" y="6" width="21" height="21" as="geometry"/>
                </mxCell>
                <mxCell id="ahMI72zOjXoAlA9K3_ai-16" value="" style="shape=lineEllipse;line=vertical;perimeter=ellipsePerimeter;whiteSpace=wrap;html=1;backgroundOutline=1;rounded=1;sketch=0;" vertex="1" parent="ahMI72zOjXoAlA9K3_ai-12">
                    <mxGeometry x="134.5" y="27" width="21" height="21" as="geometry"/>
                </mxCell>
                <mxCell id="ahMI72zOjXoAlA9K3_ai-17" value="" style="shape=lineEllipse;line=vertical;perimeter=ellipsePerimeter;whiteSpace=wrap;html=1;backgroundOutline=1;rounded=1;sketch=0;" vertex="1" parent="ahMI72zOjXoAlA9K3_ai-12">
                    <mxGeometry x="134.5" y="49.5" width="21" height="21" as="geometry"/>
                </mxCell>
                <mxCell id="ahMI72zOjXoAlA9K3_ai-18" value="" style="shape=lineEllipse;line=vertical;perimeter=ellipsePerimeter;whiteSpace=wrap;html=1;backgroundOutline=1;rounded=1;sketch=0;" vertex="1" parent="ahMI72zOjXoAlA9K3_ai-12">
                    <mxGeometry x="134.5" y="70.5" width="21" height="21" as="geometry"/>
                </mxCell>
                <mxCell id="ahMI72zOjXoAlA9K3_ai-19" value="" style="shape=lineEllipse;line=vertical;perimeter=ellipsePerimeter;whiteSpace=wrap;html=1;backgroundOutline=1;rounded=1;sketch=0;" vertex="1" parent="ahMI72zOjXoAlA9K3_ai-12">
                    <mxGeometry x="134.5" y="91.5" width="21" height="21" as="geometry"/>
                </mxCell>
                <mxCell id="ahMI72zOjXoAlA9K3_ai-20" value="" style="edgeStyle=entityRelationEdgeStyle;startArrow=none;endArrow=none;segment=10;curved=1;entryX=0;entryY=0.5;entryDx=0;entryDy=0;exitX=1;exitY=0.5;exitDx=0;exitDy=0;" edge="1" parent="ahMI72zOjXoAlA9K3_ai-12" source="ahMI72zOjXoAlA9K3_ai-14" target="ahMI72zOjXoAlA9K3_ai-15">
                    <mxGeometry relative="1" as="geometry">
                        <mxPoint x="74.99999999999955" y="39.999999999999886" as="sourcePoint"/>
                        <mxPoint x="115" y="61" as="targetPoint"/>
                    </mxGeometry>
                </mxCell>
                <mxCell id="ahMI72zOjXoAlA9K3_ai-21" value="" style="edgeStyle=entityRelationEdgeStyle;startArrow=none;endArrow=none;segment=10;curved=1;entryX=0;entryY=0.5;entryDx=0;entryDy=0;exitX=1;exitY=0.5;exitDx=0;exitDy=0;" edge="1" parent="ahMI72zOjXoAlA9K3_ai-12" source="ahMI72zOjXoAlA9K3_ai-14" target="ahMI72zOjXoAlA9K3_ai-16">
                    <mxGeometry relative="1" as="geometry">
                        <mxPoint x="65" y="60" as="sourcePoint"/>
                        <mxPoint x="144.49999999997613" y="26.5" as="targetPoint"/>
                    </mxGeometry>
                </mxCell>
                <mxCell id="ahMI72zOjXoAlA9K3_ai-22" value="" style="edgeStyle=entityRelationEdgeStyle;startArrow=none;endArrow=none;segment=10;curved=1;entryX=0;entryY=0.5;entryDx=0;entryDy=0;exitX=1;exitY=0.5;exitDx=0;exitDy=0;" edge="1" parent="ahMI72zOjXoAlA9K3_ai-12" source="ahMI72zOjXoAlA9K3_ai-14" target="ahMI72zOjXoAlA9K3_ai-17">
                    <mxGeometry relative="1" as="geometry">
                        <mxPoint x="75" y="64" as="sourcePoint"/>
                        <mxPoint x="144.4999999999891" y="47.5" as="targetPoint"/>
                    </mxGeometry>
                </mxCell>
                <mxCell id="ahMI72zOjXoAlA9K3_ai-23" value="" style="edgeStyle=entityRelationEdgeStyle;startArrow=none;endArrow=none;segment=10;curved=1;entryX=0;entryY=0.5;entryDx=0;entryDy=0;exitX=1;exitY=0.5;exitDx=0;exitDy=0;" edge="1" parent="ahMI72zOjXoAlA9K3_ai-12" source="ahMI72zOjXoAlA9K3_ai-14" target="ahMI72zOjXoAlA9K3_ai-18">
                    <mxGeometry relative="1" as="geometry">
                        <mxPoint x="75" y="64" as="sourcePoint"/>
                        <mxPoint x="144.4999999999891" y="70" as="targetPoint"/>
                    </mxGeometry>
                </mxCell>
                <mxCell id="ahMI72zOjXoAlA9K3_ai-24" value="" style="edgeStyle=entityRelationEdgeStyle;startArrow=none;endArrow=none;segment=10;curved=1;entryX=0;entryY=0.5;entryDx=0;entryDy=0;exitX=1;exitY=0.5;exitDx=0;exitDy=0;" edge="1" parent="ahMI72zOjXoAlA9K3_ai-12" source="ahMI72zOjXoAlA9K3_ai-14">
                    <mxGeometry relative="1" as="geometry">
                        <mxPoint x="65" y="50" as="sourcePoint"/>
                        <mxPoint x="134.4999999999891" y="102" as="targetPoint"/>
                    </mxGeometry>
                </mxCell>
                <mxCell id="ahMI72zOjXoAlA9K3_ai-25" value="" style="group" vertex="1" connectable="0" parent="ahMI72zOjXoAlA9K3_ai-6">
                    <mxGeometry x="370" y="20" width="135" height="120" as="geometry"/>
                </mxCell>
                <mxCell id="ahMI72zOjXoAlA9K3_ai-26" value="" style="html=1;dashed=0;whitespace=wrap;shape=mxgraph.dfd.start;rounded=1;rotation=90;" vertex="1" parent="ahMI72zOjXoAlA9K3_ai-25">
                    <mxGeometry x="-45" y="45" width="120" height="30" as="geometry"/>
                </mxCell>
                <mxCell id="ahMI72zOjXoAlA9K3_ai-27" value="" style="shape=orEllipse;perimeter=ellipsePerimeter;whiteSpace=wrap;html=1;backgroundOutline=1;rounded=1;" vertex="1" parent="ahMI72zOjXoAlA9K3_ai-25">
                    <mxGeometry x="5" y="90" width="20" height="20" as="geometry"/>
                </mxCell>
                <mxCell id="ahMI72zOjXoAlA9K3_ai-28" value="" style="shape=orEllipse;perimeter=ellipsePerimeter;whiteSpace=wrap;html=1;backgroundOutline=1;rounded=1;direction=south;sketch=0;rotation=45;" vertex="1" parent="ahMI72zOjXoAlA9K3_ai-25">
                    <mxGeometry x="5" y="6" width="20" height="20" as="geometry"/>
                </mxCell>
                <mxCell id="ahMI72zOjXoAlA9K3_ai-29" value="Success" style="whiteSpace=wrap;html=1;rounded=1;arcSize=50;align=center;verticalAlign=middle;strokeWidth=1;autosize=1;spacing=4;treeFolding=0;treeMoving=1;newEdgeStyle={&quot;edgeStyle&quot;:&quot;entityRelationEdgeStyle&quot;,&quot;startArrow&quot;:&quot;none&quot;,&quot;endArrow&quot;:&quot;none&quot;,&quot;segment&quot;:10,&quot;curved&quot;:1};sketch=0;expand=1;" vertex="1" parent="ahMI72zOjXoAlA9K3_ai-25">
                    <mxGeometry x="65" y="68" width="70" height="22" as="geometry"/>
                </mxCell>
                <mxCell id="ahMI72zOjXoAlA9K3_ai-30" value="" style="edgeStyle=entityRelationEdgeStyle;startArrow=none;endArrow=none;segment=10;curved=1;" edge="1" parent="ahMI72zOjXoAlA9K3_ai-25" target="ahMI72zOjXoAlA9K3_ai-29">
                    <mxGeometry relative="1" as="geometry">
                        <mxPoint x="25" y="100" as="sourcePoint"/>
                    </mxGeometry>
                </mxCell>
                <mxCell id="ahMI72zOjXoAlA9K3_ai-31" value="" style="edgeStyle=entityRelationEdgeStyle;startArrow=none;endArrow=none;segment=10;curved=1;entryX=0;entryY=0.5;entryDx=0;entryDy=0;exitX=0;exitY=0;exitDx=0;exitDy=0;" edge="1" parent="ahMI72zOjXoAlA9K3_ai-25" source="ahMI72zOjXoAlA9K3_ai-28" target="ahMI72zOjXoAlA9K3_ai-35">
                    <mxGeometry relative="1" as="geometry">
                        <mxPoint x="45" y="20" as="sourcePoint"/>
                        <mxPoint x="85" y="-0.9999999999998863" as="targetPoint"/>
                    </mxGeometry>
                </mxCell>
                <mxCell id="ahMI72zOjXoAlA9K3_ai-32" value="" style="html=1;dashed=0;whitespace=wrap;shape=mxgraph.dfd.loop;rounded=1;sketch=0;rotation=-90;" vertex="1" parent="ahMI72zOjXoAlA9K3_ai-25">
                    <mxGeometry x="-12.5" y="43.5" width="55" height="30" as="geometry"/>
                </mxCell>
                <mxCell id="ahMI72zOjXoAlA9K3_ai-33" value="Outputs" style="whiteSpace=wrap;html=1;rounded=1;arcSize=50;align=center;verticalAlign=bottom;strokeWidth=1;autosize=1;spacing=4;treeFolding=0;treeMoving=1;newEdgeStyle={&quot;edgeStyle&quot;:&quot;entityRelationEdgeStyle&quot;,&quot;startArrow&quot;:&quot;none&quot;,&quot;endArrow&quot;:&quot;none&quot;,&quot;segment&quot;:10,&quot;curved&quot;:1};sketch=0;expand=1;" vertex="1" parent="ahMI72zOjXoAlA9K3_ai-25">
                    <mxGeometry x="65" y="48" width="70" height="21" as="geometry"/>
                </mxCell>
                <mxCell id="ahMI72zOjXoAlA9K3_ai-34" value="" style="edgeStyle=entityRelationEdgeStyle;startArrow=none;endArrow=none;segment=10;curved=1;entryX=0;entryY=0.5;entryDx=0;entryDy=0;" edge="1" parent="ahMI72zOjXoAlA9K3_ai-25" source="ahMI72zOjXoAlA9K3_ai-32" target="ahMI72zOjXoAlA9K3_ai-33">
                    <mxGeometry relative="1" as="geometry">
                        <mxPoint x="35" y="110" as="sourcePoint"/>
                        <mxPoint x="75" y="100" as="targetPoint"/>
                    </mxGeometry>
                </mxCell>
                <mxCell id="ahMI72zOjXoAlA9K3_ai-35" value="Fail" style="whiteSpace=wrap;html=1;rounded=1;arcSize=50;align=center;verticalAlign=middle;strokeWidth=1;autosize=1;spacing=4;treeFolding=0;treeMoving=1;newEdgeStyle={&quot;edgeStyle&quot;:&quot;entityRelationEdgeStyle&quot;,&quot;startArrow&quot;:&quot;none&quot;,&quot;endArrow&quot;:&quot;none&quot;,&quot;segment&quot;:10,&quot;curved&quot;:1};sketch=0;" vertex="1" collapsed="1" parent="ahMI72zOjXoAlA9K3_ai-25">
                    <mxGeometry x="65" y="26" width="70" height="22" as="geometry"/>
                </mxCell>
            </root>
        </mxGraphModel>
    </diagram>
</mxfile>